<svg width="30" height="30" viewBox="0 0 30 30" fill="none" xmlns="http://www.w3.org/2000/svg">
<path d="M11.1429 0C14.0981 0 16.9324 1.17398 19.022 3.26367C21.1117 5.35336 22.2857 8.18759 22.2857 11.1429C22.2857 13.9029 21.2743 16.44 19.6114 18.3943L20.0743 18.8571H21.4286L30 27.4286L27.4286 30L18.8571 21.4286V20.0743L18.3943 19.6114C16.44 21.2743 13.9029 22.2857 11.1429 22.2857C8.18759 22.2857 5.35336 21.1117 3.26367 19.022C1.17398 16.9324 0 14.0981 0 11.1429C0 8.18759 1.17398 5.35336 3.26367 3.26367C5.35336 1.17398 8.18759 0 11.1429 0V0ZM11.1429 3.42857C6.85714 3.42857 3.42857 6.85714 3.42857 11.1429C3.42857 15.4286 6.85714 18.8571 11.1429 18.8571C15.4286 18.8571 18.8571 15.4286 18.8571 11.1429C18.8571 6.85714 15.4286 3.42857 11.1429 3.42857Z" fill="#4D1B5C"/>
</svg>
