<svg width="375" height="260" viewBox="0 0 375 260" fill="none" xmlns="http://www.w3.org/2000/svg">
<path d="M266.616 203.324C265.154 194.966 265.843 186.374 268.617 178.356C271.392 170.339 276.161 163.159 282.476 157.492L315.868 194.708L266.616 203.324Z" fill="#C79CD5" fill-opacity="0.3"/>
<path d="M298.965 147.995C306.934 145.084 315.513 144.249 323.895 145.568C332.276 146.887 340.183 150.317 346.873 155.536L316.12 194.96L298.965 147.995Z" fill="#C79CD5" fill-opacity="0.3"/>
<path d="M362.919 177.353C365.642 185.389 366.277 193.985 364.762 202.333C363.247 210.681 359.632 218.506 354.259 225.072L315.565 193.405L362.919 177.353Z" fill="#C79CD5" fill-opacity="0.3"/>
<path d="M145.298 13.1113C148.693 5.33583 154.011 -1.44774 160.752 -6.60091C167.492 -11.7541 175.432 -15.1073 183.826 -16.345L191.12 33.1201L145.298 13.1113Z" fill="#C79CD5" fill-opacity="0.3"/>
<path d="M224.414 -3.28535C230.52 2.6053 235.027 9.9529 237.51 18.0658C239.993 26.1787 240.371 34.79 238.608 43.0892L189.699 32.6993L224.414 -3.28535Z" fill="#C79CD5" fill-opacity="0.3"/>
<path d="M204.238 80.8101C196.071 83.1102 187.453 83.2944 179.196 81.3452C170.938 79.396 163.313 75.3776 157.037 69.6683L190.683 32.6825L204.238 80.8101Z" fill="#C79CD5" fill-opacity="0.3"/>
<path d="M84.9361 126.366C92.4371 130.331 98.8057 136.139 103.443 143.244C108.08 150.35 110.832 158.518 111.441 166.98L61.5703 170.57L84.9361 126.366Z" fill="#C79CD5" fill-opacity="0.3"/>
<path d="M72.9309 219.263C64.6684 221.19 56.0513 220.984 47.8906 218.663C39.7299 216.341 32.2941 211.982 26.2832 205.994L61.5703 170.57L72.9309 219.263Z" fill="#C79CD5" fill-opacity="0.3"/>
<path d="M8.85776 166.918C9.34269 158.448 11.9751 150.24 16.5072 143.067C21.0394 135.895 27.3221 129.994 34.7641 125.919L58.776 169.776L8.85776 166.918Z" fill="#C79CD5" fill-opacity="0.3"/>
</svg>
