<svg width="1440" height="1295" viewBox="0 0 1440 1295" fill="none" xmlns="http://www.w3.org/2000/svg">
<rect width="1440" height="1295" fill="#4D1B5C"/>
<path d="M228.852 124.901C235.813 125.814 242.419 128.4 248.05 132.414C253.681 136.427 258.151 141.738 261.039 147.845L223.307 163.967L228.852 124.901Z" fill="#C79CD5" fill-opacity="0.3"/>
<path d="M259.841 181.45C256.535 187.346 251.706 192.339 245.809 195.961C239.912 199.582 233.141 201.711 226.133 202.149L223.32 162.798L259.841 181.45Z" fill="#C79CD5" fill-opacity="0.3"/>
<path d="M188.307 184.129C184.624 178.422 182.524 171.92 182.204 165.234C181.885 158.549 183.356 151.9 186.479 145.914L223.555 163.541L188.307 184.129Z" fill="#C79CD5" fill-opacity="0.3"/>
<path d="M201.852 336.901C208.813 337.814 215.419 340.4 221.05 344.414C226.681 348.427 231.151 353.738 234.039 359.845L196.307 375.967L201.852 336.901Z" fill="#C79CD5" fill-opacity="0.3"/>
<path d="M232.841 393.45C229.535 399.346 224.706 404.34 218.809 407.961C212.912 411.582 206.141 413.711 199.133 414.149L196.32 374.798L232.841 393.45Z" fill="#C79CD5" fill-opacity="0.3"/>
<path d="M161.307 396.129C157.624 390.422 155.524 383.92 155.204 377.234C154.885 370.549 156.356 363.9 159.479 357.914L196.555 375.541L161.307 396.129Z" fill="#C79CD5" fill-opacity="0.3"/>
<path d="M347.852 539.901C354.813 540.814 361.419 543.4 367.05 547.414C372.681 551.427 377.151 556.738 380.039 562.845L342.307 578.967L347.852 539.901Z" fill="#C79CD5" fill-opacity="0.3"/>
<path d="M378.841 596.45C375.535 602.346 370.706 607.34 364.809 610.961C358.912 614.582 352.141 616.711 345.133 617.149L342.32 577.798L378.841 596.45Z" fill="#C79CD5" fill-opacity="0.3"/>
<path d="M307.307 599.129C303.624 593.422 301.524 586.92 301.204 580.234C300.885 573.549 302.356 566.9 305.479 560.914L342.555 578.541L307.307 599.129Z" fill="#C79CD5" fill-opacity="0.3"/>
<path d="M218.852 788.901C225.813 789.814 232.419 792.4 238.05 796.414C243.681 800.427 248.151 805.738 251.039 811.845L213.307 827.967L218.852 788.901Z" fill="#C79CD5" fill-opacity="0.3"/>
<path d="M249.841 845.45C246.535 851.346 241.706 856.34 235.809 859.961C229.912 863.582 223.141 865.711 216.133 866.149L213.32 826.798L249.841 845.45Z" fill="#C79CD5" fill-opacity="0.3"/>
<path d="M178.307 848.129C174.624 842.422 172.524 835.92 172.204 829.234C171.885 822.549 173.356 815.9 176.479 809.914L213.555 827.541L178.307 848.129Z" fill="#C79CD5" fill-opacity="0.3"/>
<path d="M452.852 748.901C459.813 749.814 466.419 752.4 472.05 756.414C477.681 760.427 482.151 765.738 485.039 771.845L447.307 787.967L452.852 748.901Z" fill="#C79CD5" fill-opacity="0.3"/>
<path d="M483.841 805.45C480.535 811.346 475.706 816.34 469.809 819.961C463.912 823.582 457.141 825.711 450.133 826.149L447.32 786.798L483.841 805.45Z" fill="#C79CD5" fill-opacity="0.3"/>
<path d="M412.307 808.129C408.624 802.422 406.524 795.92 406.204 789.234C405.885 782.549 407.356 775.9 410.479 769.914L447.555 787.541L412.307 808.129Z" fill="#C79CD5" fill-opacity="0.3"/>
<path d="M362.852 927.901C369.813 928.814 376.419 931.4 382.05 935.414C387.681 939.427 392.151 944.738 395.039 950.845L357.307 966.967L362.852 927.901Z" fill="#C79CD5" fill-opacity="0.3"/>
<path d="M393.841 984.45C390.535 990.346 385.706 995.34 379.809 998.961C373.912 1002.58 367.141 1004.71 360.133 1005.15L357.32 965.798L393.841 984.45Z" fill="#C79CD5" fill-opacity="0.3"/>
<path d="M322.307 987.129C318.624 981.422 316.524 974.92 316.204 968.234C315.885 961.549 317.356 954.9 320.479 948.914L357.555 966.541L322.307 987.129Z" fill="#C79CD5" fill-opacity="0.3"/>
<path d="M229.852 1118.9C236.813 1119.81 243.419 1122.4 249.05 1126.41C254.681 1130.43 259.151 1135.74 262.039 1141.84L224.307 1157.97L229.852 1118.9Z" fill="#C79CD5" fill-opacity="0.3"/>
<path d="M260.841 1175.45C257.535 1181.35 252.706 1186.34 246.809 1189.96C240.912 1193.58 234.141 1195.71 227.133 1196.15L224.32 1156.8L260.841 1175.45Z" fill="#C79CD5" fill-opacity="0.3"/>
<path d="M189.307 1178.13C185.624 1172.42 183.524 1165.92 183.204 1159.23C182.885 1152.55 184.356 1145.9 187.479 1139.91L224.555 1157.54L189.307 1178.13Z" fill="#C79CD5" fill-opacity="0.3"/>
<path d="M537.852 1048.9C544.813 1049.81 551.419 1052.4 557.05 1056.41C562.681 1060.43 567.151 1065.74 570.039 1071.84L532.307 1087.97L537.852 1048.9Z" fill="#C79CD5" fill-opacity="0.3"/>
<path d="M568.841 1105.45C565.535 1111.35 560.706 1116.34 554.809 1119.96C548.912 1123.58 542.141 1125.71 535.133 1126.15L532.32 1086.8L568.841 1105.45Z" fill="#C79CD5" fill-opacity="0.3"/>
<path d="M497.307 1108.13C493.624 1102.42 491.524 1095.92 491.204 1089.23C490.885 1082.55 492.356 1075.9 495.479 1069.91L532.555 1087.54L497.307 1108.13Z" fill="#C79CD5" fill-opacity="0.3"/>
<path d="M484.852 98.9007C491.813 99.8143 498.419 102.4 504.05 106.413C509.681 110.427 514.151 115.738 517.039 121.845L479.307 137.967L484.852 98.9007Z" fill="#C79CD5" fill-opacity="0.3"/>
<path d="M515.841 155.45C512.535 161.346 507.706 166.339 501.809 169.961C495.912 173.582 489.141 175.711 482.133 176.149L479.32 136.798L515.841 155.45Z" fill="#C79CD5" fill-opacity="0.3"/>
<path d="M444.307 158.129C440.624 152.422 438.524 145.92 438.204 139.234C437.885 132.549 439.356 125.9 442.479 119.914L479.555 137.541L444.307 158.129Z" fill="#C79CD5" fill-opacity="0.3"/>
<path d="M515.852 297.901C522.813 298.814 529.419 301.4 535.05 305.414C540.681 309.427 545.151 314.738 548.039 320.845L510.307 336.967L515.852 297.901Z" fill="#C79CD5" fill-opacity="0.3"/>
<path d="M546.841 354.45C543.535 360.346 538.706 365.34 532.809 368.961C526.912 372.582 520.141 374.711 513.133 375.149L510.32 335.798L546.841 354.45Z" fill="#C79CD5" fill-opacity="0.3"/>
<path d="M475.307 357.129C471.624 351.422 469.524 344.92 469.204 338.234C468.885 331.549 470.356 324.9 473.479 318.914L510.555 336.541L475.307 357.129Z" fill="#C79CD5" fill-opacity="0.3"/>
<path d="M731.852 911.901C738.813 912.814 745.419 915.4 751.05 919.414C756.681 923.427 761.151 928.738 764.039 934.845L726.307 950.967L731.852 911.901Z" fill="#C79CD5" fill-opacity="0.3"/>
<path d="M762.841 968.45C759.535 974.346 754.706 979.34 748.809 982.961C742.912 986.582 736.141 988.711 729.133 989.149L726.32 949.798L762.841 968.45Z" fill="#C79CD5" fill-opacity="0.3"/>
<path d="M691.307 971.129C687.624 965.422 685.524 958.92 685.204 952.234C684.885 945.549 686.356 938.9 689.479 932.914L726.555 950.541L691.307 971.129Z" fill="#C79CD5" fill-opacity="0.3"/>
<path d="M958.852 835.901C965.813 836.814 972.419 839.4 978.05 843.414C983.681 847.427 988.151 852.738 991.039 858.845L953.307 874.967L958.852 835.901Z" fill="#C79CD5" fill-opacity="0.3"/>
<path d="M989.841 892.45C986.535 898.346 981.706 903.34 975.809 906.961C969.912 910.582 963.141 912.711 956.133 913.149L953.32 873.798L989.841 892.45Z" fill="#C79CD5" fill-opacity="0.3"/>
<path d="M918.307 895.129C914.624 889.422 912.524 882.92 912.204 876.234C911.885 869.549 913.356 862.9 916.479 856.914L953.555 874.541L918.307 895.129Z" fill="#C79CD5" fill-opacity="0.3"/>
<path d="M1252.85 818.901C1259.81 819.814 1266.42 822.4 1272.05 826.414C1277.68 830.427 1282.15 835.738 1285.04 841.845L1247.31 857.967L1252.85 818.901Z" fill="#C79CD5" fill-opacity="0.3"/>
<path d="M1283.84 875.45C1280.53 881.346 1275.71 886.34 1269.81 889.961C1263.91 893.582 1257.14 895.711 1250.13 896.149L1247.32 856.798L1283.84 875.45Z" fill="#C79CD5" fill-opacity="0.3"/>
<path d="M1212.31 878.129C1208.62 872.422 1206.52 865.92 1206.2 859.234C1205.88 852.549 1207.36 845.9 1210.48 839.914L1247.56 857.541L1212.31 878.129Z" fill="#C79CD5" fill-opacity="0.3"/>
<path d="M1055.85 1019.9C1062.81 1020.81 1069.42 1023.4 1075.05 1027.41C1080.68 1031.43 1085.15 1036.74 1088.04 1042.84L1050.31 1058.97L1055.85 1019.9Z" fill="#C79CD5" fill-opacity="0.3"/>
<path d="M1086.84 1076.45C1083.53 1082.35 1078.71 1087.34 1072.81 1090.96C1066.91 1094.58 1060.14 1096.71 1053.13 1097.15L1050.32 1057.8L1086.84 1076.45Z" fill="#C79CD5" fill-opacity="0.3"/>
<path d="M1015.31 1079.13C1011.62 1073.42 1009.52 1066.92 1009.2 1060.23C1008.88 1053.55 1010.36 1046.9 1013.48 1040.91L1050.56 1058.54L1015.31 1079.13Z" fill="#C79CD5" fill-opacity="0.3"/>
<path d="M808.852 1173.9C815.813 1174.81 822.419 1177.4 828.05 1181.41C833.681 1185.43 838.151 1190.74 841.039 1196.84L803.307 1212.97L808.852 1173.9Z" fill="#C79CD5" fill-opacity="0.3"/>
<path d="M839.841 1230.45C836.535 1236.35 831.706 1241.34 825.809 1244.96C819.912 1248.58 813.141 1250.71 806.133 1251.15L803.32 1211.8L839.841 1230.45Z" fill="#C79CD5" fill-opacity="0.3"/>
<path d="M768.307 1233.13C764.624 1227.42 762.524 1220.92 762.204 1214.23C761.885 1207.55 763.356 1200.9 766.479 1194.91L803.555 1212.54L768.307 1233.13Z" fill="#C79CD5" fill-opacity="0.3"/>
<path d="M804.852 712.901C811.813 713.814 818.419 716.4 824.05 720.414C829.681 724.427 834.151 729.738 837.039 735.845L799.307 751.967L804.852 712.901Z" fill="#C79CD5" fill-opacity="0.3"/>
<path d="M835.841 769.45C832.535 775.346 827.706 780.34 821.809 783.961C815.912 787.582 809.141 789.711 802.133 790.149L799.32 750.798L835.841 769.45Z" fill="#C79CD5" fill-opacity="0.3"/>
<path d="M764.307 772.129C760.624 766.422 758.524 759.92 758.204 753.234C757.885 746.549 759.356 739.9 762.479 733.914L799.555 751.541L764.307 772.129Z" fill="#C79CD5" fill-opacity="0.3"/>
<path d="M1174.85 639.901C1181.81 640.814 1188.42 643.4 1194.05 647.414C1199.68 651.427 1204.15 656.738 1207.04 662.845L1169.31 678.967L1174.85 639.901Z" fill="#C79CD5" fill-opacity="0.3"/>
<path d="M1205.84 696.45C1202.53 702.346 1197.71 707.34 1191.81 710.961C1185.91 714.582 1179.14 716.711 1172.13 717.149L1169.32 677.798L1205.84 696.45Z" fill="#C79CD5" fill-opacity="0.3"/>
<path d="M1134.31 699.129C1130.62 693.422 1128.52 686.92 1128.2 680.234C1127.88 673.549 1129.36 666.9 1132.48 660.914L1169.56 678.541L1134.31 699.129Z" fill="#C79CD5" fill-opacity="0.3"/>
<path d="M808.852 482.901C815.813 483.814 822.419 486.4 828.05 490.414C833.681 494.427 838.151 499.738 841.039 505.845L803.307 521.967L808.852 482.901Z" fill="#C79CD5" fill-opacity="0.3"/>
<path d="M839.841 539.45C836.535 545.346 831.706 550.34 825.809 553.961C819.912 557.582 813.141 559.711 806.133 560.149L803.32 520.798L839.841 539.45Z" fill="#C79CD5" fill-opacity="0.3"/>
<path d="M768.307 542.129C764.624 536.422 762.524 529.92 762.204 523.234C761.885 516.549 763.356 509.9 766.479 503.914L803.555 521.541L768.307 542.129Z" fill="#C79CD5" fill-opacity="0.3"/>
<path d="M1014.85 304.901C1021.81 305.814 1028.42 308.4 1034.05 312.414C1039.68 316.427 1044.15 321.738 1047.04 327.845L1009.31 343.967L1014.85 304.901Z" fill="#C79CD5" fill-opacity="0.3"/>
<path d="M1045.84 361.45C1042.53 367.346 1037.71 372.34 1031.81 375.961C1025.91 379.582 1019.14 381.711 1012.13 382.149L1009.32 342.798L1045.84 361.45Z" fill="#C79CD5" fill-opacity="0.3"/>
<path d="M974.307 364.129C970.624 358.422 968.524 351.92 968.204 345.234C967.885 338.549 969.356 331.9 972.479 325.914L1009.56 343.541L974.307 364.129Z" fill="#C79CD5" fill-opacity="0.3"/>
<path d="M1220.85 126.901C1227.81 127.814 1234.42 130.4 1240.05 134.414C1245.68 138.427 1250.15 143.738 1253.04 149.845L1215.31 165.967L1220.85 126.901Z" fill="#C79CD5" fill-opacity="0.3"/>
<path d="M1251.84 183.45C1248.53 189.346 1243.71 194.339 1237.81 197.961C1231.91 201.582 1225.14 203.711 1218.13 204.149L1215.32 164.798L1251.84 183.45Z" fill="#C79CD5" fill-opacity="0.3"/>
<path d="M1180.31 186.129C1176.62 180.422 1174.52 173.92 1174.2 167.234C1173.88 160.549 1175.36 153.9 1178.48 147.914L1215.56 165.541L1180.31 186.129Z" fill="#C79CD5" fill-opacity="0.3"/>
<path d="M1261.85 367.901C1268.81 368.814 1275.42 371.4 1281.05 375.414C1286.68 379.427 1291.15 384.738 1294.04 390.845L1256.31 406.967L1261.85 367.901Z" fill="#C79CD5" fill-opacity="0.3"/>
<path d="M1292.84 424.45C1289.53 430.346 1284.71 435.34 1278.81 438.961C1272.91 442.582 1266.14 444.711 1259.13 445.149L1256.32 405.798L1292.84 424.45Z" fill="#C79CD5" fill-opacity="0.3"/>
<path d="M1221.31 427.129C1217.62 421.422 1215.52 414.92 1215.2 408.234C1214.88 401.549 1216.36 394.9 1219.48 388.914L1256.56 406.541L1221.31 427.129Z" fill="#C79CD5" fill-opacity="0.3"/>
<path d="M789.852 244.901C796.813 245.814 803.419 248.4 809.05 252.414C814.681 256.427 819.151 261.738 822.039 267.845L784.307 283.967L789.852 244.901Z" fill="#C79CD5" fill-opacity="0.3"/>
<path d="M820.841 301.45C817.535 307.346 812.706 312.34 806.809 315.961C800.912 319.582 794.141 321.711 787.133 322.149L784.32 282.798L820.841 301.45Z" fill="#C79CD5" fill-opacity="0.3"/>
<path d="M749.307 304.129C745.624 298.422 743.524 291.92 743.204 285.234C742.885 278.549 744.356 271.9 747.479 265.914L784.555 283.541L749.307 304.129Z" fill="#C79CD5" fill-opacity="0.3"/>
<path d="M871.852 89.9007C878.813 90.8143 885.419 93.3996 891.05 97.4135C896.681 101.427 901.151 106.738 904.039 112.845L866.307 128.967L871.852 89.9007Z" fill="#C79CD5" fill-opacity="0.3"/>
<path d="M902.841 146.45C899.535 152.346 894.706 157.339 888.809 160.961C882.912 164.582 876.141 166.711 869.133 167.149L866.32 127.798L902.841 146.45Z" fill="#C79CD5" fill-opacity="0.3"/>
<path d="M831.307 149.129C827.624 143.422 825.524 136.92 825.204 130.234C824.885 123.549 826.356 116.9 829.479 110.914L866.555 128.541L831.307 149.129Z" fill="#C79CD5" fill-opacity="0.3"/>
<path d="M556.852 525.901C563.813 526.814 570.419 529.4 576.05 533.414C581.681 537.427 586.151 542.738 589.039 548.845L551.307 564.967L556.852 525.901Z" fill="#C79CD5" fill-opacity="0.3"/>
<path d="M587.841 582.45C584.535 588.346 579.706 593.34 573.809 596.961C567.912 600.582 561.141 602.711 554.133 603.149L551.32 563.798L587.841 582.45Z" fill="#C79CD5" fill-opacity="0.3"/>
<path d="M516.307 585.129C512.624 579.422 510.524 572.92 510.204 566.234C509.885 559.549 511.356 552.9 514.479 546.914L551.555 564.541L516.307 585.129Z" fill="#C79CD5" fill-opacity="0.3"/>
</svg>
