<svg width="105" height="105" viewBox="0 0 105 105" fill="none" xmlns="http://www.w3.org/2000/svg">
<path d="M74.0625 48.75H56.25V30.9375C56.25 30.4219 55.8281 30 55.3125 30H49.6875C49.1719 30 48.75 30.4219 48.75 30.9375V48.75H30.9375C30.4219 48.75 30 49.1719 30 49.6875V55.3125C30 55.8281 30.4219 56.25 30.9375 56.25H48.75V74.0625C48.75 74.5781 49.1719 75 49.6875 75H55.3125C55.8281 75 56.25 74.5781 56.25 74.0625V56.25H74.0625C74.5781 56.25 75 55.8281 75 55.3125V49.6875C75 49.1719 74.5781 48.75 74.0625 48.75Z" fill="#CCCCCC"/>
<path d="M52.5 0C23.5078 0 0 23.5078 0 52.5C0 81.4922 23.5078 105 52.5 105C81.4922 105 105 81.4922 105 52.5C105 23.5078 81.4922 0 52.5 0ZM52.5 96.0938C28.4297 96.0938 8.90625 76.5703 8.90625 52.5C8.90625 28.4297 28.4297 8.90625 52.5 8.90625C76.5703 8.90625 96.0938 28.4297 96.0938 52.5C96.0938 76.5703 76.5703 96.0938 52.5 96.0938Z" fill="#CCCCCC"/>
</svg>
