<svg width="731" height="1031" viewBox="0 0 731 1031" fill="none" xmlns="http://www.w3.org/2000/svg">
<path d="M0 7H664C664 197.553 432 573 664 497C896 421 430 969 664 1031H0V7Z" fill="#4D1B5C"/>
<path d="M149.495 203.154C142.19 204.104 134.764 203.117 127.916 200.285C121.067 197.454 115.022 192.871 110.348 186.968L143.902 158.65L149.495 203.154Z" fill="#C79CD5" fill-opacity="0.3"/>
<path d="M101.924 149.688C103.578 142.278 107.032 135.433 111.96 129.796C116.888 124.16 123.128 119.917 130.093 117.469L144.224 159.939L101.924 149.688Z" fill="#C79CD5" fill-opacity="0.3"/>
<path d="M173.532 126.657C178.895 131.898 182.884 138.456 185.125 145.716C187.366 152.976 187.784 160.698 186.341 168.156L143.772 159.188L173.532 126.657Z" fill="#C79CD5" fill-opacity="0.3"/>
<path d="M447.495 130.154C440.19 131.104 432.764 130.117 425.915 127.285C419.067 124.454 413.022 119.871 408.348 113.968L441.902 85.6502L447.495 130.154Z" fill="#C79CD5" fill-opacity="0.3"/>
<path d="M399.923 76.6878C401.578 69.2779 405.032 62.4326 409.96 56.7961C414.888 51.1596 421.128 46.9174 428.093 44.4687L442.224 86.9386L399.923 76.6878Z" fill="#C79CD5" fill-opacity="0.3"/>
<path d="M471.532 53.6574C476.895 58.8976 480.884 65.4564 483.125 72.7162C485.366 79.9761 485.784 87.6983 484.34 95.1559L441.772 86.1882L471.532 53.6574Z" fill="#C79CD5" fill-opacity="0.3"/>
<path d="M379.495 413.154C372.19 414.104 364.764 413.117 357.915 410.285C351.067 407.454 345.022 402.871 340.348 396.968L373.902 368.65L379.495 413.154Z" fill="#C79CD5" fill-opacity="0.3"/>
<path d="M331.923 359.688C333.578 352.278 337.032 345.433 341.96 339.796C346.888 334.16 353.128 329.917 360.093 327.469L374.224 369.939L331.923 359.688Z" fill="#C79CD5" fill-opacity="0.3"/>
<path d="M403.532 336.657C408.895 341.898 412.884 348.456 415.125 355.716C417.366 362.976 417.784 370.698 416.34 378.156L373.772 369.188L403.532 336.657Z" fill="#C79CD5" fill-opacity="0.3"/>
<path d="M126.495 584.154C119.19 585.104 111.764 584.117 104.915 581.285C98.067 578.454 92.0215 573.871 87.348 567.968L120.902 539.65L126.495 584.154Z" fill="#C79CD5" fill-opacity="0.3"/>
<path d="M78.9233 530.688C80.5777 523.278 84.0315 516.433 88.9595 510.796C93.8876 505.16 100.128 500.917 107.093 498.469L121.224 540.939L78.9233 530.688Z" fill="#C79CD5" fill-opacity="0.3"/>
<path d="M150.532 507.657C155.895 512.898 159.884 519.456 162.125 526.716C164.366 533.976 164.784 541.698 163.34 549.156L120.772 540.188L150.532 507.657Z" fill="#C79CD5" fill-opacity="0.3"/>
<path d="M475.495 781.154C468.19 782.104 460.764 781.117 453.915 778.285C447.067 775.454 441.022 770.871 436.348 764.968L469.902 736.65L475.495 781.154Z" fill="#C79CD5" fill-opacity="0.3"/>
<path d="M427.923 727.688C429.578 720.278 433.032 713.433 437.96 707.796C442.888 702.16 449.128 697.917 456.093 695.469L470.224 737.939L427.923 727.688Z" fill="#C79CD5" fill-opacity="0.3"/>
<path d="M499.532 704.657C504.895 709.898 508.884 716.456 511.125 723.716C513.366 730.976 513.784 738.698 512.34 746.156L469.772 737.188L499.532 704.657Z" fill="#C79CD5" fill-opacity="0.3"/>
<path d="M130.495 890.154C123.19 891.104 115.764 890.117 108.915 887.285C102.067 884.454 96.0215 879.871 91.348 873.968L124.902 845.65L130.495 890.154Z" fill="#C79CD5" fill-opacity="0.3"/>
<path d="M82.9233 836.688C84.5777 829.278 88.0315 822.433 92.9595 816.796C97.8876 811.16 104.128 806.917 111.093 804.469L125.224 846.939L82.9233 836.688Z" fill="#C79CD5" fill-opacity="0.3"/>
<path d="M154.532 813.657C159.895 818.898 163.884 825.456 166.125 832.716C168.366 839.976 168.784 847.698 167.34 855.156L124.772 846.188L154.532 813.657Z" fill="#C79CD5" fill-opacity="0.3"/>
</svg>
