<svg width="1537" height="1133" viewBox="0 0 1537 1133" fill="none" xmlns="http://www.w3.org/2000/svg">
<g filter="url(#filter0_f_283_246)">
<path d="M477.155 1008.67C470.19 1004.2 464.568 998.155 460.817 991.113C457.066 984.07 455.311 976.259 455.716 968.415L505.594 970.627L477.155 1008.67Z" fill="#C79CD5" fill-opacity="0.3"/>
<path d="M476.337 933.884C483.286 929.391 491.355 926.61 499.784 925.805C508.212 924.999 516.724 926.194 524.517 929.278L504.908 971.842L476.337 933.884Z" fill="#C79CD5" fill-opacity="0.3"/>
<path d="M554.856 967.233C555.536 975.061 554.055 982.921 550.553 990.073C547.052 997.224 541.644 1003.43 534.839 1008.11L505.081 970.946L554.856 967.233Z" fill="#C79CD5" fill-opacity="0.3"/>
<path d="M554.856 967.233C555.536 975.061 554.055 982.921 550.553 990.073C547.052 997.224 541.644 1003.43 534.839 1008.11L505.081 970.946L554.856 967.233Z" fill="#C79CD5" fill-opacity="0.3"/>
<path d="M290.155 831.67C283.19 827.197 277.568 821.155 273.817 814.113C270.066 807.07 268.311 799.259 268.716 791.415L318.594 793.627L290.155 831.67Z" fill="#C79CD5" fill-opacity="0.3"/>
<path d="M289.337 756.884C296.286 752.391 304.355 749.61 312.784 748.805C321.212 747.999 329.724 749.194 337.517 752.278L317.908 794.842L289.337 756.884Z" fill="#C79CD5" fill-opacity="0.3"/>
<path d="M367.856 790.233C368.536 798.061 367.055 805.921 363.553 813.073C360.052 820.224 354.644 826.432 347.839 831.112L318.081 793.946L367.856 790.233Z" fill="#C79CD5" fill-opacity="0.3"/>
<path d="M367.856 790.233C368.536 798.061 367.055 805.921 363.553 813.073C360.052 820.224 354.644 826.432 347.839 831.112L318.081 793.946L367.856 790.233Z" fill="#C79CD5" fill-opacity="0.3"/>
<path d="M1506.96 174.292C1503.44 180.944 1498.37 186.473 1492.23 190.358C1486.09 194.242 1479.07 196.355 1471.83 196.497L1469.62 150.802L1506.96 174.292Z" fill="#C79CD5" fill-opacity="0.3"/>
<path d="M1438.39 179.918C1433.67 173.864 1430.44 166.677 1428.98 159.032C1427.52 151.387 1427.9 143.537 1430.07 136.219L1470.8 151.349L1438.39 179.918Z" fill="#C79CD5" fill-opacity="0.3"/>
<path d="M1462.33 106.036C1469.45 104.904 1476.79 105.744 1483.65 108.475C1490.51 111.206 1496.67 115.74 1501.54 121.648L1469.96 151.25L1462.33 106.036Z" fill="#C79CD5" fill-opacity="0.3"/>
<path d="M488.81 416.838C482.141 412.555 476.758 406.77 473.167 400.027C469.575 393.284 467.895 385.805 468.282 378.294L516.04 380.412L488.81 416.838Z" fill="#C79CD5" fill-opacity="0.3"/>
<path d="M488.027 345.231C494.681 340.929 502.407 338.267 510.477 337.495C518.547 336.723 526.697 337.868 534.158 340.821L515.383 381.576L488.027 345.231Z" fill="#C79CD5" fill-opacity="0.3"/>
<path d="M563.208 377.162C563.859 384.658 562.441 392.183 559.088 399.031C555.735 405.879 550.558 411.823 544.042 416.304L515.549 380.718L563.208 377.162Z" fill="#C79CD5" fill-opacity="0.3"/>
<path d="M121.155 1092.67C114.19 1088.2 108.567 1082.16 104.817 1075.11C101.066 1068.07 99.3107 1060.26 99.7157 1052.41L149.594 1054.63L121.155 1092.67Z" fill="#C79CD5" fill-opacity="0.3"/>
<path d="M120.337 1017.88C127.286 1013.39 135.355 1010.61 143.784 1009.8C152.212 1009 160.724 1010.19 168.517 1013.28L148.908 1055.84L120.337 1017.88Z" fill="#C79CD5" fill-opacity="0.3"/>
<path d="M198.856 1051.23C199.535 1059.06 198.055 1066.92 194.553 1074.07C191.051 1081.22 185.644 1087.43 178.839 1092.11L149.081 1054.95L198.856 1051.23Z" fill="#C79CD5" fill-opacity="0.3"/>
<path d="M1200.46 1045.57C1192.35 1046.74 1184.05 1045.97 1176.34 1043.35C1168.63 1040.72 1161.77 1036.32 1156.41 1030.55L1193.05 1001.25L1200.46 1045.57Z" fill="#C79CD5" fill-opacity="0.3"/>
<path d="M1146.03 993.536C1147.68 986.08 1151.34 979.135 1156.69 973.354C1162.03 967.574 1168.87 963.148 1176.56 960.494L1193.44 1002.53L1146.03 993.536Z" fill="#C79CD5" fill-opacity="0.3"/>
<path d="M1225.21 968.393C1231.33 973.472 1235.95 979.911 1238.64 987.102C1241.33 994.293 1242 1002 1240.59 1009.5L1192.92 1001.79L1225.21 968.393Z" fill="#C79CD5" fill-opacity="0.3"/>
<path d="M159.903 477.511C167.428 475.669 175.335 475.632 182.88 477.403C190.425 479.174 197.359 482.696 203.03 487.637L171.617 518.613L159.903 477.511Z" fill="#C79CD5" fill-opacity="0.3"/>
<path d="M216.759 521.582C216.002 528.761 213.286 535.644 208.866 541.582C204.447 547.52 198.47 552.319 191.498 555.525L171.11 517.444L216.759 521.582Z" fill="#C79CD5" fill-opacity="0.3"/>
<path d="M144.796 552.534C138.49 548.305 133.449 542.659 130.147 536.127C126.845 529.594 125.391 522.391 125.921 515.194L171.682 518.091L144.796 552.534Z" fill="#C79CD5" fill-opacity="0.3"/>
<path d="M79.9449 218.536C87.6143 215.684 95.9407 214.688 104.14 215.641C112.34 216.594 120.143 219.466 126.815 223.985L98.0799 260.427L79.9449 218.536Z" fill="#C79CD5" fill-opacity="0.3"/>
<path d="M146.065 258.09C146.278 265.747 144.386 273.328 140.567 280.12C136.747 286.912 131.125 292.691 124.231 296.914L97.3812 259.257L146.065 258.09Z" fill="#C79CD5" fill-opacity="0.3"/>
<path d="M74.6 299.416C67.3597 295.724 61.2521 290.385 56.8521 283.901C52.4522 277.418 49.9046 270.004 49.4492 262.356L98.0752 259.869L74.6 299.416Z" fill="#C79CD5" fill-opacity="0.3"/>
<path d="M524.945 49.5365C532.614 46.6843 540.941 45.6879 549.14 46.6411C557.34 47.5942 565.143 50.4655 571.815 54.9848L543.08 91.4273L524.945 49.5365Z" fill="#C79CD5" fill-opacity="0.3"/>
<path d="M591.065 89.0902C591.279 96.7469 589.386 104.328 585.567 111.12C581.747 117.912 576.125 123.691 569.231 127.914L542.381 90.2568L591.065 89.0902Z" fill="#C79CD5" fill-opacity="0.3"/>
<path d="M519.6 130.416C512.36 126.724 506.252 121.385 501.852 114.901C497.452 108.418 494.905 101.004 494.449 93.3562L543.075 90.8688L519.6 130.416Z" fill="#C79CD5" fill-opacity="0.3"/>
<path d="M1176.67 197.258C1184.62 198.065 1192.23 200.735 1198.76 205.016C1205.29 209.297 1210.54 215.049 1214.02 221.729L1171.54 240.702L1176.67 197.258Z" fill="#C79CD5" fill-opacity="0.3"/>
<path d="M1213.67 258.997C1210.08 265.626 1204.74 271.3 1198.13 275.486C1191.52 279.671 1183.88 282.23 1175.91 282.921L1171.52 239.407L1213.67 258.997Z" fill="#C79CD5" fill-opacity="0.3"/>
<path d="M1132.29 264.072C1127.93 257.857 1125.34 250.715 1124.77 243.317C1124.21 235.92 1125.68 228.51 1129.06 221.787L1171.81 240.223L1132.29 264.072Z" fill="#C79CD5" fill-opacity="0.3"/>
</g>
<defs>
<filter id="filter0_f_283_246" x="45.4492" y="42.2903" width="1465.51" height="1054.38" filterUnits="userSpaceOnUse" color-interpolation-filters="sRGB">
<feFlood flood-opacity="0" result="BackgroundImageFix"/>
<feBlend mode="normal" in="SourceGraphic" in2="BackgroundImageFix" result="shape"/>
<feGaussianBlur stdDeviation="2" result="effect1_foregroundBlur_283_246"/>
</filter>
</defs>
</svg>
