<svg width="96" height="81" viewBox="0 0 96 81" fill="none" xmlns="http://www.w3.org/2000/svg">
<path d="M90.3191 2C93.1691 2 95.3191 4.5 94.1691 9.15L80.2191 74.9C79.2441 79.575 76.4191 80.7 72.5191 78.525L39.2441 53.95C39.1151 53.8574 39.0099 53.7354 38.9374 53.5941C38.8649 53.4528 38.8271 53.2963 38.8271 53.1375C38.8271 52.9787 38.8649 52.8222 38.9374 52.6809C39.0099 52.5396 39.1151 52.4176 39.2441 52.325L77.6691 17.625C79.4191 16.075 77.2941 15.325 74.9941 16.725L26.7691 47.15C26.6229 47.2454 26.4568 47.3062 26.2835 47.3279C26.1103 47.3495 25.9344 47.3315 25.7691 47.275L5.29412 40.8C0.74412 39.475 0.744119 36.35 6.31912 34.125L88.2441 2.525C88.8938 2.2133 89.5994 2.0348 90.3191 2V2Z" stroke="#C4C4C4" stroke-width="2.5" stroke-linecap="round" stroke-linejoin="round"/>
</svg>
