<svg width="105" height="105" viewBox="0 0 105 105" fill="none" xmlns="http://www.w3.org/2000/svg">
<path d="M77.6511 27.3487C77.159 26.8563 76.5394 26.5105 75.8619 26.3502C75.1843 26.1899 74.4755 26.2215 73.8149 26.4412L40.0649 37.6912C39.5121 37.8755 39.0099 38.186 38.5979 38.598C38.1859 39.01 37.8754 39.5122 37.6911 40.065L26.4411 73.815C26.2208 74.4757 26.1888 75.1848 26.3488 75.8627C26.5088 76.5405 26.8544 77.1605 27.3469 77.653C27.8394 78.1455 28.4593 78.4911 29.1372 78.6511C29.8151 78.8111 30.5242 78.7791 31.1849 78.5587L64.9349 67.3087C65.4876 67.1244 65.9899 66.814 66.4019 66.402C66.8139 65.99 67.1243 65.4877 67.3086 64.935L78.5586 31.185C78.7784 30.5243 78.8099 29.8155 78.6496 29.138C78.4894 28.4604 78.1436 27.8409 77.6511 27.3487V27.3487ZM35.9286 69.075L44.2161 44.22L60.7874 60.7912L35.9286 69.075Z" fill="#C4C4C4"/>
<path d="M52.5 105C42.1165 105 31.9662 101.921 23.3326 96.1522C14.699 90.3834 7.96995 82.184 3.99635 72.5909C0.0227474 62.9978 -1.01693 52.4418 1.0088 42.2578C3.03452 32.0738 8.03466 22.7192 15.3769 15.3769C22.7192 8.03466 32.0738 3.03452 42.2578 1.0088C52.4418 -1.01693 62.9978 0.0227474 72.5909 3.99635C82.184 7.96995 90.3834 14.699 96.1522 23.3326C101.921 31.9662 105 42.1165 105 52.5C104.984 66.419 99.4478 79.7634 89.6056 89.6056C79.7634 99.4478 66.419 104.984 52.5 105V105ZM52.5 7.50002C43.5999 7.50002 34.8996 10.1392 27.4994 15.0839C20.0992 20.0286 14.3314 27.0566 10.9254 35.2793C7.5195 43.5019 6.62835 52.5499 8.36469 61.2791C10.101 70.0082 14.3869 78.0265 20.6802 84.3198C26.9736 90.6132 34.9918 94.899 43.721 96.6354C52.4501 98.3717 61.4981 97.4805 69.7208 94.0746C77.9435 90.6687 84.9715 84.9009 89.9162 77.5007C94.8608 70.1005 97.5 61.4002 97.5 52.5C97.4861 40.5695 92.7406 29.1317 84.3045 20.6956C75.8684 12.2594 64.4305 7.51392 52.5 7.50002V7.50002Z" fill="#C4C4C4"/>
</svg>
