<svg width="665" height="1047" viewBox="0 0 665 1047" fill="none" xmlns="http://www.w3.org/2000/svg">
<path d="M655.557 1047H59.8911C59.8911 856.447 268.015 481 59.8911 557C-148.233 633 269.81 85 59.8911 23H655.557L655.557 1047Z" fill="#4D1B5C"/>
<path d="M261.073 268.154C253.769 269.104 246.343 268.117 239.494 265.285C232.646 262.454 226.6 257.871 221.927 251.968L255.481 223.65L261.073 268.154Z" fill="#C79CD5" fill-opacity="0.3"/>
<path d="M213.502 214.688C215.156 207.278 218.61 200.433 223.538 194.796C228.466 189.16 234.706 184.917 241.671 182.469L255.803 224.939L213.502 214.688Z" fill="#C79CD5" fill-opacity="0.3"/>
<path d="M285.11 191.657C290.473 196.898 294.462 203.456 296.703 210.716C298.944 217.976 299.362 225.698 297.919 233.156L255.351 224.188L285.11 191.657Z" fill="#C79CD5" fill-opacity="0.3"/>
<path d="M585.819 130.154C578.514 131.104 571.088 130.117 564.24 127.285C557.391 124.454 551.346 119.871 546.672 113.968L580.226 85.6502L585.819 130.154Z" fill="#C79CD5" fill-opacity="0.3"/>
<path d="M538.247 76.6878C539.902 69.2779 543.355 62.4326 548.284 56.7961C553.212 51.1596 559.452 46.9174 566.417 44.4687L580.548 86.9386L538.247 76.6878Z" fill="#C79CD5" fill-opacity="0.3"/>
<path d="M609.856 53.6574C615.219 58.8976 619.208 65.4564 621.449 72.7162C623.69 79.9761 624.108 87.6983 622.664 95.1559L580.096 86.1882L609.856 53.6574Z" fill="#C79CD5" fill-opacity="0.3"/>
<path d="M433.314 410.154C426.009 411.104 418.583 410.117 411.735 407.285C404.886 404.454 398.841 399.871 394.167 393.968L427.721 365.65L433.314 410.154Z" fill="#C79CD5" fill-opacity="0.3"/>
<path d="M385.742 356.688C387.397 349.278 390.851 342.433 395.779 336.796C400.707 331.16 406.947 326.917 413.912 324.469L428.043 366.939L385.742 356.688Z" fill="#C79CD5" fill-opacity="0.3"/>
<path d="M457.351 333.657C462.714 338.898 466.703 345.456 468.944 352.716C471.185 359.976 471.603 367.698 470.16 375.156L427.591 366.188L457.351 333.657Z" fill="#C79CD5" fill-opacity="0.3"/>
<path d="M280.809 690.154C273.504 691.104 266.078 690.117 259.23 687.285C252.381 684.454 246.336 679.871 241.662 673.968L275.216 645.65L280.809 690.154Z" fill="#C79CD5" fill-opacity="0.3"/>
<path d="M233.238 636.688C234.892 629.278 238.346 622.433 243.274 616.796C248.202 611.16 254.442 606.917 261.407 604.469L275.538 646.939L233.238 636.688Z" fill="#C79CD5" fill-opacity="0.3"/>
<path d="M304.846 613.657C310.209 618.898 314.198 625.456 316.439 632.716C318.68 639.976 319.098 647.698 317.655 655.156L275.086 646.188L304.846 613.657Z" fill="#C79CD5" fill-opacity="0.3"/>
<path d="M128.304 970.154C121 971.104 113.573 970.117 106.725 967.285C99.8766 964.454 93.8311 959.871 89.1576 953.968L122.712 925.65L128.304 970.154Z" fill="#C79CD5" fill-opacity="0.3"/>
<path d="M80.7326 916.688C82.3871 909.278 85.8408 902.433 90.7689 896.796C95.6969 891.16 101.937 886.917 108.902 884.469L123.033 926.939L80.7326 916.688Z" fill="#C79CD5" fill-opacity="0.3"/>
<path d="M152.341 893.658C157.704 898.898 161.693 905.457 163.934 912.716C166.175 919.976 166.593 927.698 165.15 935.156L122.581 926.188L152.341 893.658Z" fill="#C79CD5" fill-opacity="0.3"/>
<path d="M578.642 941.154C571.338 942.104 563.911 941.117 557.063 938.285C550.214 935.454 544.169 930.871 539.495 924.968L573.049 896.65L578.642 941.154Z" fill="#C79CD5" fill-opacity="0.3"/>
<path d="M531.071 887.688C532.725 880.278 536.179 873.433 541.107 867.796C546.035 862.16 552.275 857.917 559.24 855.469L573.371 897.939L531.071 887.688Z" fill="#C79CD5" fill-opacity="0.3"/>
<path d="M602.679 864.657C608.042 869.898 612.031 876.456 614.272 883.716C616.513 890.976 616.931 898.698 615.488 906.156L572.919 897.188L602.679 864.657Z" fill="#C79CD5" fill-opacity="0.3"/>
<path d="M584.922 666.154C577.617 667.104 570.191 666.117 563.343 663.285C556.494 660.454 550.449 655.871 545.775 649.968L579.329 621.65L584.922 666.154Z" fill="#C79CD5" fill-opacity="0.3"/>
<path d="M537.351 612.688C539.005 605.278 542.459 598.433 547.387 592.796C552.315 587.16 558.555 582.917 565.52 580.469L579.652 622.939L537.351 612.688Z" fill="#C79CD5" fill-opacity="0.3"/>
<path d="M608.959 589.657C614.322 594.898 618.311 601.456 620.552 608.716C622.793 615.976 623.211 623.698 621.767 631.156L579.199 622.188L608.959 589.657Z" fill="#C79CD5" fill-opacity="0.3"/>
</svg>
