<svg width="734" height="1019" viewBox="0 0 734 1019" fill="none" xmlns="http://www.w3.org/2000/svg">
<path d="M733.462 1019L67.0084 1019C67.0084 829.539 299.866 456.244 67.0084 531.808C-165.849 607.372 301.873 62.5129 67.0084 0.868164L733.462 0.868164L733.462 1019Z" fill="#4D1B5C"/>
<path d="M292.099 244.617C283.927 245.562 275.618 244.58 267.956 241.765C260.293 238.95 253.529 234.393 248.301 228.524L285.842 200.369L292.099 244.617Z" fill="#C79CD5" fill-opacity="0.3"/>
<path d="M238.875 191.458C240.726 184.09 244.59 177.284 250.103 171.68C255.617 166.076 262.599 161.858 270.391 159.423L286.202 201.65L238.875 191.458Z" fill="#C79CD5" fill-opacity="0.3"/>
<path d="M318.993 168.559C324.993 173.769 329.456 180.291 331.963 187.509C334.471 194.727 334.939 202.405 333.323 209.82L285.697 200.904L318.993 168.559Z" fill="#C79CD5" fill-opacity="0.3"/>
<path d="M633.131 131.408C624.958 132.353 616.649 131.371 608.987 128.556C601.325 125.741 594.561 121.184 589.332 115.315L626.873 87.1594L633.131 131.408Z" fill="#C79CD5" fill-opacity="0.3"/>
<path d="M579.906 78.2484C581.757 70.881 585.621 64.0749 591.135 58.4707C596.648 52.8665 603.63 48.6486 611.423 46.214L627.234 88.4405L579.906 78.2484Z" fill="#C79CD5" fill-opacity="0.3"/>
<path d="M660.024 55.35C666.024 60.5602 670.488 67.0813 672.995 74.2996C675.502 81.5178 675.97 89.1958 674.355 96.6106L626.728 87.6944L660.024 55.35Z" fill="#C79CD5" fill-opacity="0.3"/>
<path d="M484.809 385.804C476.636 386.748 468.327 385.767 460.665 382.951C453.003 380.136 446.239 375.58 441.01 369.711L478.552 341.555L484.809 385.804Z" fill="#C79CD5" fill-opacity="0.3"/>
<path d="M431.584 332.644C433.435 325.277 437.299 318.47 442.813 312.866C448.327 307.262 455.308 303.044 463.101 300.609L478.912 342.836L431.584 332.644Z" fill="#C79CD5" fill-opacity="0.3"/>
<path d="M511.702 309.745C517.702 314.956 522.166 321.477 524.673 328.695C527.18 335.913 527.648 343.591 526.033 351.006L478.406 342.09L511.702 309.745Z" fill="#C79CD5" fill-opacity="0.3"/>
<path d="M314.181 664.199C306.008 665.144 297.7 664.162 290.037 661.347C282.375 658.531 275.611 653.975 270.382 648.106L307.924 619.95L314.181 664.199Z" fill="#C79CD5" fill-opacity="0.3"/>
<path d="M260.956 611.039C262.807 603.672 266.671 596.866 272.185 591.261C277.699 585.657 284.68 581.439 292.473 579.005L308.284 621.231L260.956 611.039Z" fill="#C79CD5" fill-opacity="0.3"/>
<path d="M341.074 588.141C347.074 593.351 351.538 599.872 354.045 607.09C356.552 614.309 357.02 621.987 355.405 629.401L307.778 620.485L341.074 588.141Z" fill="#C79CD5" fill-opacity="0.3"/>
<path d="M143.552 942.594C135.379 943.539 127.071 942.557 119.408 939.742C111.746 936.927 104.982 932.37 99.7532 926.501L137.295 898.346L143.552 942.594Z" fill="#C79CD5" fill-opacity="0.3"/>
<path d="M90.3272 889.435C92.1782 882.067 96.0424 875.261 101.556 869.657C107.07 864.053 114.051 859.835 121.844 857.4L137.655 899.627L90.3272 889.435Z" fill="#C79CD5" fill-opacity="0.3"/>
<path d="M170.445 866.536C176.445 871.747 180.909 878.268 183.416 885.486C185.923 892.704 186.391 900.382 184.776 907.797L137.149 898.881L170.445 866.536Z" fill="#C79CD5" fill-opacity="0.3"/>
<path d="M629.131 913.408C620.958 914.353 612.649 913.371 604.987 910.556C597.325 907.74 590.561 903.184 585.332 897.315L622.873 869.159L629.131 913.408Z" fill="#C79CD5" fill-opacity="0.3"/>
<path d="M575.906 860.248C577.757 852.881 581.621 846.075 587.135 840.471C592.648 834.866 599.63 830.648 607.423 828.214L623.234 870.44L575.906 860.248Z" fill="#C79CD5" fill-opacity="0.3"/>
<path d="M656.024 837.35C662.024 842.56 666.488 849.081 668.995 856.299C671.502 863.518 671.97 871.196 670.355 878.61L622.728 869.694L656.024 837.35Z" fill="#C79CD5" fill-opacity="0.3"/>
<path d="M633.13 640.408C624.957 641.353 616.649 640.371 608.986 637.556C601.324 634.741 594.56 630.184 589.331 624.315L626.873 596.159L633.13 640.408Z" fill="#C79CD5" fill-opacity="0.3"/>
<path d="M579.906 587.248C581.757 579.881 585.621 573.075 591.135 567.471C596.648 561.867 603.63 557.649 611.423 555.214L627.234 597.44L579.906 587.248Z" fill="#C79CD5" fill-opacity="0.3"/>
<path d="M660.023 564.35C666.024 569.56 670.487 576.081 672.994 583.3C675.501 590.518 675.969 598.196 674.354 605.611L626.727 596.694L660.023 564.35Z" fill="#C79CD5" fill-opacity="0.3"/>
</svg>
