<svg width="80" height="93" viewBox="0 0 80 93" fill="none" xmlns="http://www.w3.org/2000/svg">
<path d="M1.465 36.4639L36.465 1.46393C37.4026 0.526577 38.6742 0 40 0C41.3258 0 42.5974 0.526577 43.535 1.46393L78.535 36.4639C79.4728 37.4014 79.9997 38.673 80 39.9989V87.9289C80 89.255 79.4732 90.5268 78.5355 91.4645C77.5979 92.4022 76.3261 92.9289 75 92.9289H50V57.9289H30V92.9289H5C3.67392 92.9289 2.40215 92.4022 1.46447 91.4645C0.526785 90.5268 0 89.255 0 87.9289V39.9989C0.000283187 38.673 0.527254 37.4014 1.465 36.4639Z" fill="#C4C4C4"/>
</svg>
