<svg width="218" height="54" viewBox="0 0 218 54" fill="none" xmlns="http://www.w3.org/2000/svg">
<path d="M0.916384 6.80863C0.916384 4.96508 1.52282 3.41261 2.73568 2.15123C3.99706 0.889853 5.64656 0.259164 7.68417 0.259164C9.72179 0.259164 11.347 0.889853 12.5599 2.15123C13.8213 3.41261 14.452 4.96508 14.452 6.80863C14.452 8.65219 13.8213 10.2047 12.5599 11.466C11.347 12.7274 9.72179 13.3581 7.68417 13.3581C5.64656 13.3581 3.99706 12.7274 2.73568 11.466C1.52282 10.2047 0.916384 8.65219 0.916384 6.80863ZM13.8698 51.9272C13.3361 52.0243 12.5356 52.1455 11.4683 52.2911C10.4495 52.4851 9.40644 52.5822 8.33912 52.5822C7.2718 52.5822 6.30151 52.5094 5.42824 52.3639C4.6035 52.2183 3.90003 51.9272 3.31786 51.4906C2.73568 51.054 2.27479 50.4718 1.93519 49.7441C1.6441 48.9678 1.49856 47.9733 1.49856 46.7604V17.1422C2.03222 17.0452 2.80845 16.9239 3.82726 16.7784C4.89458 16.5843 5.9619 16.4873 7.02923 16.4873C8.09655 16.4873 9.04258 16.5601 9.86733 16.7056C10.7406 16.8512 11.4683 17.1422 12.0505 17.5789C12.6327 18.0155 13.0693 18.6219 13.3604 19.3982C13.7 20.1259 13.8698 21.0962 13.8698 22.3091V51.9272ZM44.1594 29.5862C44.1594 28.0823 43.7228 26.9907 42.8495 26.3115C42.0248 25.5838 40.8847 25.2199 39.4292 25.2199C38.4589 25.2199 37.4886 25.3412 36.5183 25.5838C35.5966 25.8264 34.7961 26.1902 34.1169 26.6754V51.9272C33.6317 52.0728 32.8555 52.2183 31.7882 52.3639C30.7694 52.5094 29.702 52.5822 28.5862 52.5822C27.5189 52.5822 26.5486 52.5094 25.6753 52.3639C24.8506 52.2183 24.1471 51.9272 23.5649 51.4906C22.9828 51.054 22.5219 50.4718 22.1823 49.7441C21.8912 48.9678 21.7456 47.9733 21.7456 46.7604V24.9288C21.7456 23.619 22.0125 22.5516 22.5461 21.7269C23.1283 20.9021 23.9045 20.1502 24.8748 19.471C26.5243 18.3066 28.5862 17.3606 31.0604 16.6328C33.5832 15.9051 36.3728 15.5413 39.4292 15.5413C44.9114 15.5413 49.1321 16.7541 52.0915 19.1799C55.0509 21.5571 56.5306 24.8803 56.5306 29.1496V51.9272C56.0455 52.0728 55.2692 52.2183 54.2019 52.3639C53.1831 52.5094 52.1158 52.5822 51 52.5822C49.9326 52.5822 48.9623 52.5094 48.0891 52.3639C47.2643 52.2183 46.5609 51.9272 45.9787 51.4906C45.3965 51.054 44.9356 50.4718 44.596 49.7441C44.3049 48.9678 44.1594 47.9733 44.1594 46.7604V29.5862ZM60.1669 18.0883C59.8273 17.5546 59.512 16.8269 59.2209 15.9051C58.9298 14.9833 58.7843 14.0131 58.7843 12.9943C58.7843 11.1022 59.1966 9.74377 60.0214 8.91902C60.8947 8.09427 62.0105 7.6819 63.3689 7.6819H95.0975C95.4371 8.21556 95.7524 8.94328 96.0435 9.86505C96.3346 10.7868 96.4801 11.7571 96.4801 12.7759C96.4801 14.668 96.0435 16.0264 95.1702 16.8512C94.3455 17.6759 93.2539 18.0883 91.8955 18.0883H83.8178V51.7089C83.2842 51.8545 82.4351 52 81.2708 52.1455C80.155 52.2911 79.0391 52.3639 77.9233 52.3639C76.8075 52.3639 75.8129 52.2668 74.9396 52.0728C74.1149 51.9272 73.4114 51.6361 72.8293 51.1995C72.2471 50.7629 71.8104 50.1564 71.5194 49.3802C71.2283 48.604 71.0827 47.5852 71.0827 46.3238V18.0883H60.1669ZM101.049 6.80863C101.049 4.96508 101.655 3.41261 102.868 2.15123C104.13 0.889853 105.779 0.259164 107.817 0.259164C109.854 0.259164 111.479 0.889853 112.692 2.15123C113.954 3.41261 114.584 4.96508 114.584 6.80863C114.584 8.65219 113.954 10.2047 112.692 11.466C111.479 12.7274 109.854 13.3581 107.817 13.3581C105.779 13.3581 104.13 12.7274 102.868 11.466C101.655 10.2047 101.049 8.65219 101.049 6.80863ZM114.002 51.9272C113.469 52.0243 112.668 52.1455 111.601 52.2911C110.582 52.4851 109.539 52.5822 108.472 52.5822C107.404 52.5822 106.434 52.5094 105.561 52.3639C104.736 52.2183 104.032 51.9272 103.45 51.4906C102.868 51.054 102.407 50.4718 102.068 49.7441C101.777 48.9678 101.631 47.9733 101.631 46.7604V17.1422C102.165 17.0452 102.941 16.9239 103.96 16.7784C105.027 16.5843 106.094 16.4873 107.162 16.4873C108.229 16.4873 109.175 16.5601 110 16.7056C110.873 16.8512 111.601 17.1422 112.183 17.5789C112.765 18.0155 113.202 18.6219 113.493 19.3982C113.832 20.1259 114.002 21.0962 114.002 22.3091V51.9272ZM138.834 15.5413C140.823 15.5413 142.764 15.8324 144.656 16.4145C146.596 16.9482 148.27 17.7729 149.677 18.8888C151.132 17.9185 152.758 17.118 154.553 16.4873C156.396 15.8566 158.604 15.5413 161.175 15.5413C163.018 15.5413 164.814 15.7838 166.56 16.269C168.355 16.7541 169.932 17.5304 171.29 18.5977C172.697 19.6165 173.813 20.9992 174.638 22.7457C175.462 24.4437 175.875 26.5298 175.875 29.0041V51.9272C175.39 52.0728 174.613 52.2183 173.546 52.3639C172.527 52.5094 171.46 52.5822 170.344 52.5822C169.277 52.5822 168.307 52.5094 167.433 52.3639C166.609 52.2183 165.905 51.9272 165.323 51.4906C164.741 51.054 164.28 50.4718 163.94 49.7441C163.649 48.9678 163.504 47.9733 163.504 46.7604V29.3679C163.504 27.9125 163.091 26.8694 162.267 26.2387C161.442 25.5595 160.326 25.2199 158.919 25.2199C158.24 25.2199 157.512 25.3897 156.736 25.7293C155.96 26.0204 155.377 26.3358 154.989 26.6754C155.038 26.8694 155.062 27.0635 155.062 27.2575C155.062 27.4031 155.062 27.5486 155.062 27.6942V51.9272C154.528 52.0728 153.728 52.2183 152.661 52.3639C151.642 52.5094 150.599 52.5822 149.531 52.5822C148.464 52.5822 147.494 52.5094 146.621 52.3639C145.796 52.2183 145.092 51.9272 144.51 51.4906C143.928 51.054 143.467 50.4718 143.128 49.7441C142.836 48.9678 142.691 47.9733 142.691 46.7604V29.3679C142.691 27.9125 142.23 26.8694 141.308 26.2387C140.435 25.5595 139.368 25.2199 138.106 25.2199C137.233 25.2199 136.481 25.3655 135.85 25.6566C135.22 25.8991 134.686 26.1417 134.249 26.3843V51.9272C133.764 52.0728 132.988 52.2183 131.921 52.3639C130.902 52.5094 129.835 52.5822 128.719 52.5822C127.651 52.5822 126.681 52.5094 125.808 52.3639C124.983 52.2183 124.28 51.9272 123.697 51.4906C123.115 51.054 122.654 50.4718 122.315 49.7441C122.024 48.9678 121.878 47.9733 121.878 46.7604V24.7833C121.878 23.4734 122.145 22.4303 122.679 21.6541C123.261 20.8779 124.037 20.1502 125.007 19.471C126.657 18.3066 128.694 17.3606 131.12 16.6328C133.594 15.9051 136.166 15.5413 138.834 15.5413ZM202.124 53.1644C199.262 53.1644 196.593 52.7762 194.119 52C191.693 51.1753 189.559 49.9624 187.715 48.3614C185.92 46.7604 184.489 44.7471 183.422 42.3213C182.403 39.8956 181.893 37.0575 181.893 33.807C181.893 30.6051 182.403 27.864 183.422 25.5838C184.489 23.2551 185.872 21.363 187.57 19.9076C189.268 18.4036 191.208 17.312 193.391 16.6328C195.574 15.9051 197.806 15.5413 200.086 15.5413C202.658 15.5413 204.986 15.9294 207.072 16.7056C209.207 17.4819 211.026 18.5492 212.53 19.9076C214.083 21.266 215.271 22.8912 216.096 24.7833C216.969 26.6754 217.406 28.7372 217.406 30.9689C217.406 32.6184 216.945 33.8798 216.023 34.7531C215.102 35.6263 213.816 36.1842 212.166 36.4268L194.192 39.1194C194.725 40.7204 195.817 41.9332 197.467 42.758C199.116 43.5342 201.008 43.9223 203.143 43.9223C205.132 43.9223 207 43.6797 208.746 43.1946C210.541 42.6609 211.997 42.0545 213.112 41.3753C213.889 41.8604 214.544 42.5396 215.077 43.4129C215.611 44.2862 215.878 45.208 215.878 46.1782C215.878 48.3614 214.859 49.9866 212.821 51.054C211.269 51.8787 209.522 52.4366 207.582 52.7277C205.641 53.0188 203.822 53.1644 202.124 53.1644ZM200.086 24.565C198.922 24.565 197.903 24.759 197.03 25.1472C196.205 25.5353 195.526 26.0447 194.992 26.6754C194.459 27.2575 194.046 27.9368 193.755 28.713C193.513 29.4407 193.367 30.1927 193.319 30.9689L205.763 28.9313C205.617 27.961 205.083 26.9907 204.162 26.0204C203.24 25.0501 201.881 24.565 200.086 24.565Z" fill="#9841B3"/>
</svg>
