<svg width="24" height="23" viewBox="0 0 24 23" fill="none" xmlns="http://www.w3.org/2000/svg">
<path d="M23.2709 8.41882C22.3682 6.94054 21.2294 5.62007 19.8999 4.50982L22.6999 1.70982C22.8821 1.52122 22.9829 1.26861 22.9806 1.00642C22.9783 0.74422 22.8732 0.493408 22.6877 0.307999C22.5023 0.122591 22.2515 0.0174224 21.9893 0.015144C21.7271 0.0128656 21.4745 0.11366 21.2859 0.295818L18.2409 3.34482C16.3533 2.22364 14.1953 1.63928 11.9999 1.65482C5.80893 1.65482 2.28093 5.89282 0.728929 8.41882C0.249457 9.19432 -0.0045166 10.0881 -0.0045166 10.9998C-0.0045166 11.9116 0.249457 12.8053 0.728929 13.5808C1.63169 15.0591 2.77042 16.3796 4.09993 17.4898L1.29993 20.2898C1.20442 20.3821 1.12824 20.4924 1.07583 20.6144C1.02342 20.7364 0.995833 20.8676 0.994679 21.0004C0.993525 21.1332 1.01883 21.2649 1.06911 21.3878C1.11939 21.5107 1.19364 21.6223 1.28753 21.7162C1.38143 21.8101 1.49308 21.8844 1.61598 21.9346C1.73887 21.9849 1.87055 22.0102 2.00333 22.0091C2.13611 22.0079 2.26733 21.9803 2.38933 21.9279C2.51134 21.8755 2.62168 21.7993 2.71393 21.7038L5.76593 18.6518C7.6512 19.7728 9.8066 20.3582 11.9999 20.3448C18.1909 20.3448 21.7189 16.1068 23.2709 13.5808C23.7504 12.8053 24.0044 11.9116 24.0044 10.9998C24.0044 10.0881 23.7504 9.19432 23.2709 8.41882ZM2.43293 12.5338C2.14806 12.0729 1.99718 11.5417 1.99718 10.9998C1.99718 10.4579 2.14806 9.92677 2.43293 9.46582C3.76693 7.29982 6.78193 3.65482 11.9999 3.65482C13.6602 3.64552 15.2972 4.04566 16.7659 4.81982L14.7529 6.83282C13.7929 6.19542 12.6418 5.90981 11.4952 6.02446C10.3485 6.13911 9.2768 6.64696 8.46193 7.46182C7.64707 8.27668 7.13922 9.34838 7.02457 10.4951C6.90992 11.6417 7.19553 12.7928 7.83293 13.7528L5.52293 16.0628C4.29803 15.0725 3.25277 13.8788 2.43293 12.5338ZM14.9999 10.9998C14.9999 11.7955 14.6839 12.5585 14.1213 13.1211C13.5586 13.6837 12.7956 13.9998 11.9999 13.9998C11.5544 13.9981 11.1151 13.8955 10.7149 13.6998L14.6999 9.71482C14.8956 10.115 14.9982 10.5543 14.9999 10.9998ZM8.99993 10.9998C8.99993 10.2042 9.316 9.44111 9.87861 8.8785C10.4412 8.31589 11.2043 7.99982 11.9999 7.99982C12.4454 8.00154 12.8847 8.10411 13.2849 8.29982L9.29993 12.2848C9.10422 11.8846 9.00165 11.4453 8.99993 10.9998ZM21.5669 12.5338C20.2329 14.6998 17.2179 18.3448 11.9999 18.3448C10.3397 18.3541 8.70269 17.954 7.23393 17.1798L9.24693 15.1668C10.207 15.8042 11.358 16.0898 12.5047 15.9752C13.6514 15.8605 14.7231 15.3527 15.5379 14.5378C16.3528 13.723 16.8606 12.6513 16.9753 11.5046C17.0899 10.3579 16.8043 9.20689 16.1669 8.24682L18.4769 5.93682C19.7018 6.9271 20.7471 8.12087 21.5669 9.46582C21.8518 9.92677 22.0027 10.4579 22.0027 10.9998C22.0027 11.5417 21.8518 12.0729 21.5669 12.5338Z" fill="#4D1B5C"/>
</svg>
